{
    "asset" : {
        "generator" : "Khronos glTF Blender I/O v3.4.50",
        "version" : "2.0"
    },
    "scene" : 0,
    "scenes" : [
        {
            "name" : "Scene",
            "nodes" : [
                20
            ]
        }
    ],
    "nodes" : [
        {
            "name" : "Head",
            "translation" : [
                0,
                0.3261597156524658,
                0
            ]
        },
        {
            "name" : "Hand.L",
            "rotation" : [
                -0.01896398514509201,
                -0.023268280550837517,
                -0.022166427224874496,
                0.9993035793304443
            ],
            "scale" : [
                1,
                1,
                0.9999999403953552
            ],
            "translation" : [
                3.7092831917107105e-08,
                0.25878456234931946,
                -1.862645149230957e-09
            ]
        },
        {
            "children" : [
                1
            ],
            "name" : "Lower Arm.L",
            "rotation" : [
                0.03705578297376633,
                -0.007253124378621578,
                -0.007533981930464506,
                0.9992585778236389
            ],
            "scale" : [
                0.9999999403953552,
                0.9999999403953552,
                1
            ],
            "translation" : [
                4.1581604826035345e-10,
                0.24702265858650208,
                -7.459064477188804e-10
            ]
        },
        {
            "children" : [
                2
            ],
            "name" : "Upper Arm.L",
            "rotation" : [
                -0.01342804729938507,
                0.013428078964352608,
                -0.7069793343544006,
                0.7069792151451111
            ],
            "scale" : [
                1,
                1,
                0.9999999403953552
            ],
            "translation" : [
                0.11947359889745712,
                0.25074994564056396,
                -0.014804806560277939
            ]
        },
        {
            "name" : "Hand.R",
            "rotation" : [
                0.018963992595672607,
                0.023268280550837517,
                -0.022166430950164795,
                0.9993035793304443
            ],
            "scale" : [
                1,
                0.9999999403953552,
                0.9999999403953552
            ],
            "translation" : [
                3.3032847568392754e-08,
                0.2587844431400299,
                0
            ]
        },
        {
            "children" : [
                4
            ],
            "name" : "Lower Arm.R",
            "rotation" : [
                -0.037055786699056625,
                0.007253160234540701,
                -0.007533986587077379,
                0.9992585778236389
            ],
            "scale" : [
                0.9999999403953552,
                0.9999999403953552,
                1
            ],
            "translation" : [
                1.1955769707583386e-07,
                0.24702268838882446,
                -4.871480996371247e-10
            ]
        },
        {
            "children" : [
                5
            ],
            "name" : "Upper Arm.R",
            "rotation" : [
                -0.7069792747497559,
                0.7069792747497559,
                -0.013428050093352795,
                0.01342807523906231
            ],
            "scale" : [
                1,
                1.0000003576278687,
                1
            ],
            "translation" : [
                -0.11947359889745712,
                0.25074994564056396,
                -0.014804806560277939
            ]
        },
        {
            "children" : [
                0,
                3,
                6
            ],
            "name" : "Spine",
            "translation" : [
                0,
                0.2314509153366089,
                0
            ]
        },
        {
            "name" : "Foot.L",
            "rotation" : [
                -1.939109461090993e-05,
                2.474244865879882e-05,
                0.6305878162384033,
                0.7761179208755493
            ],
            "scale" : [
                0.9999998807907104,
                0.9999999403953552,
                0.9999998211860657
            ],
            "translation" : [
                1.6379999578930438e-09,
                0.4261868894100189,
                9.375753506901674e-09
            ]
        },
        {
            "children" : [
                8
            ],
            "name" : "Lower Leg.L",
            "rotation" : [
                -1.1571744806815332e-07,
                -8.365924486497534e-07,
                -0.01526254415512085,
                0.9998835325241089
            ],
            "scale" : [
                0.9999998807907104,
                0.9999995231628418,
                0.9999998211860657
            ],
            "translation" : [
                -5.456968210637569e-10,
                0.381611704826355,
                -7.477183316950686e-10
            ]
        },
        {
            "children" : [
                9
            ],
            "name" : "Upper Leg.L",
            "rotation" : [
                0.7072011828422546,
                -0.002635418903082609,
                -0.7070028781890869,
                0.002564682625234127
            ],
            "scale" : [
                1.0000003576278687,
                1.0000009536743164,
                1.0262179374694824
            ],
            "translation" : [
                0.05357670783996582,
                -0.025853395462036133,
                -0.0005883872509002686
            ]
        },
        {
            "name" : "Foot.R",
            "rotation" : [
                -1.8987562725669704e-05,
                2.5041594199137762e-05,
                0.6305877566337585,
                0.7761179208755493
            ],
            "scale" : [
                0.9999998807907104,
                0.9999998807907104,
                0.9999998211860657
            ],
            "translation" : [
                1.0413714335300028e-09,
                0.4261868894100189,
                3.1650415621697903e-10
            ]
        },
        {
            "children" : [
                11
            ],
            "name" : "Lower Leg.R",
            "rotation" : [
                9.050996396808841e-08,
                -7.607953307342541e-07,
                -0.015275422483682632,
                0.9998833537101746
            ],
            "scale" : [
                0.9999999403953552,
                0.9999997615814209,
                0.9999998211860657
            ],
            "translation" : [
                -6.093614501878619e-10,
                0.38161182403564453,
                -1.3145609045750462e-09
            ]
        },
        {
            "children" : [
                12
            ],
            "name" : "Upper Leg.R",
            "rotation" : [
                0.7070032358169556,
                -0.0027511378284543753,
                -0.7071999907493591,
                0.0026856136973947287
            ],
            "scale" : [
                1.0000003576278687,
                1.000001072883606,
                1.0262179374694824
            ],
            "translation" : [
                -0.05357670783996582,
                -0.025853395462036133,
                -0.0005883872509002686
            ]
        },
        {
            "children" : [
                7,
                10,
                13
            ],
            "name" : "Hip",
            "translation" : [
                0,
                0.8738111257553101,
                0
            ]
        },
        {
            "name" : "Leg IK.L",
            "rotation" : [
                -0.5000000596046448,
                -0.5,
                0.5,
                0.5
            ],
            "translation" : [
                0.053576622158288956,
                0.04028182104229927,
                -0.007527144625782967
            ]
        },
        {
            "name" : "Pole Target.L",
            "translation" : [
                0.05340689420700073,
                0.39942583441734314,
                0.6016256809234619
            ]
        },
        {
            "name" : "Leg IK.R",
            "rotation" : [
                -0.5000000596046448,
                -0.5,
                0.5,
                0.5
            ],
            "translation" : [
                -0.053576622158288956,
                0.04028182104229927,
                -0.007527144625782967
            ]
        },
        {
            "name" : "Pole Target.R",
            "translation" : [
                -0.05340689420700073,
                0.39942583441734314,
                0.6016256809234619
            ]
        },
        {
            "mesh" : 0,
            "name" : "Cube",
            "skin" : 0
        },
        {
            "children" : [
                19,
                14,
                15,
                16,
                17,
                18
            ],
            "name" : "Armature"
        }
    ],
    "meshes" : [
        {
            "name" : "Cube",
            "primitives" : [
                {
                    "attributes" : {
                        "POSITION" : 0,
                        "TEXCOORD_0" : 1,
                        "NORMAL" : 2,
                        "JOINTS_0" : 3,
                        "WEIGHTS_0" : 4
                    },
                    "indices" : 5
                }
            ]
        }
    ],
    "skins" : [
        {
            "inverseBindMatrices" : 6,
            "joints" : [
                14,
                7,
                0,
                3,
                2,
                1,
                6,
                5,
                4,
                10,
                9,
                8,
                13,
                12,
                11,
                15,
                16,
                17,
                18
            ],
            "name" : "Armature"
        }
    ],
    "accessors" : [
        {
            "bufferView" : 0,
            "componentType" : 5126,
            "count" : 1794,
            "max" : [
                0.7754157781600952,
                1.7159321308135986,
                0.13412776589393616
            ],
            "min" : [
                -0.7754157781600952,
                0.000513889011926949,
                -0.08214303106069565
            ],
            "type" : "VEC3"
        },
        {
            "bufferView" : 1,
            "componentType" : 5126,
            "count" : 1794,
            "type" : "VEC2"
        },
        {
            "bufferView" : 2,
            "componentType" : 5126,
            "count" : 1794,
            "type" : "VEC3"
        },
        {
            "bufferView" : 3,
            "componentType" : 5121,
            "count" : 1794,
            "type" : "VEC4"
        },
        {
            "bufferView" : 4,
            "componentType" : 5126,
            "count" : 1794,
            "type" : "VEC4"
        },
        {
            "bufferView" : 5,
            "componentType" : 5123,
            "count" : 5064,
            "type" : "SCALAR"
        },
        {
            "bufferView" : 6,
            "componentType" : 5126,
            "count" : 19,
            "type" : "MAT4"
        }
    ],
    "bufferViews" : [
        {
            "buffer" : 0,
            "byteLength" : 21528,
            "byteOffset" : 0,
            "target" : 34962
        },
        {
            "buffer" : 0,
            "byteLength" : 14352,
            "byteOffset" : 21528,
            "target" : 34962
        },
        {
            "buffer" : 0,
            "byteLength" : 21528,
            "byteOffset" : 35880,
            "target" : 34962
        },
        {
            "buffer" : 0,
            "byteLength" : 7176,
            "byteOffset" : 57408,
            "target" : 34962
        },
        {
            "buffer" : 0,
            "byteLength" : 28704,
            "byteOffset" : 64584,
            "target" : 34962
        },
        {
            "buffer" : 0,
            "byteLength" : 10128,
            "byteOffset" : 93288,
            "target" : 34963
        },
        {
            "buffer" : 0,
            "byteLength" : 1216,
            "byteOffset" : 103416
        }
    ],
    "buffers" : [
        {
            "byteLength" : 104632,
            "uri" : "data:application/octet-stream;base64,"
        }
    ]
}
