{
    "asset" : {
        "generator" : "Khronos glTF Blender I/O v3.4.50",
        "version" : "2.0"
    },
    "scene" : 0,
    "scenes" : [
        {
            "name" : "Scene",
            "nodes" : [
                20
            ]
        }
    ],
    "nodes" : [
        {
            "mesh" : 0,
            "name" : "Cube",
            "rotation" : [
                0.7071068286895752,
                0,
                0,
                0.7071068286895752
            ]
        },
        {
            "name" : "Head",
            "translation" : [
                0,
                0.3261597156524658,
                0
            ]
        },
        {
            "name" : "Hand.L",
            "rotation" : [
                -0.01896398514509201,
                -0.023268280550837517,
                -0.022166427224874496,
                0.9993035793304443
            ],
            "scale" : [
                1,
                1,
                0.9999999403953552
            ],
            "translation" : [
                3.7092831917107105e-08,
                0.25878456234931946,
                -1.862645149230957e-09
            ]
        },
        {
            "children" : [
                2
            ],
            "name" : "Lower Arm.L",
            "rotation" : [
                0.03705578297376633,
                -0.007253124378621578,
                -0.007533981930464506,
                0.9992585778236389
            ],
            "scale" : [
                0.9999999403953552,
                0.9999999403953552,
                1
            ],
            "translation" : [
                4.1581604826035345e-10,
                0.24702265858650208,
                -7.459064477188804e-10
            ]
        },
        {
            "children" : [
                3
            ],
            "name" : "Upper Arm.L",
            "rotation" : [
                -0.01342804729938507,
                0.013428078964352608,
                -0.7069793343544006,
                0.7069792151451111
            ],
            "scale" : [
                1,
                1,
                0.9999999403953552
            ],
            "translation" : [
                0.11947359889745712,
                0.25074994564056396,
                -0.014804806560277939
            ]
        },
        {
            "name" : "Hand.R",
            "rotation" : [
                0.018963992595672607,
                0.023268280550837517,
                -0.022166430950164795,
                0.9993035793304443
            ],
            "scale" : [
                1,
                0.9999999403953552,
                0.9999999403953552
            ],
            "translation" : [
                3.3032847568392754e-08,
                0.2587844431400299,
                0
            ]
        },
        {
            "children" : [
                5
            ],
            "name" : "Lower Arm.R",
            "rotation" : [
                -0.037055786699056625,
                0.007253160234540701,
                -0.007533986587077379,
                0.9992585778236389
            ],
            "scale" : [
                0.9999999403953552,
                0.9999999403953552,
                1
            ],
            "translation" : [
                3.484126320785208e-10,
                0.24702268838882446,
                -4.871480996371247e-10
            ]
        },
        {
            "children" : [
                6
            ],
            "name" : "Upper Arm.R",
            "rotation" : [
                -0.7069792747497559,
                0.7069792747497559,
                -0.013428050093352795,
                0.01342807523906231
            ],
            "scale" : [
                1,
                1.0000003576278687,
                1
            ],
            "translation" : [
                -0.11947359889745712,
                0.25074994564056396,
                -0.014804806560277939
            ]
        },
        {
            "children" : [
                1,
                4,
                7
            ],
            "name" : "Spine",
            "translation" : [
                0,
                0.2314509153366089,
                0
            ]
        },
        {
            "name" : "Foot.L",
            "rotation" : [
                -1.939109824888874e-05,
                2.474245229677763e-05,
                0.6305878162384033,
                0.7761179208755493
            ],
            "translation" : [
                -6.345040048927331e-10,
                0.4261869192123413,
                1.6356542786866157e-09
            ]
        },
        {
            "children" : [
                9
            ],
            "name" : "Lower Leg.L",
            "rotation" : [
                -1.1571727753789673e-07,
                -8.369378861061705e-07,
                -0.015227310359477997,
                0.9998840689659119
            ],
            "scale" : [
                1,
                0.9999999403953552,
                1.0000001192092896
            ],
            "translation" : [
                1.229618629139395e-10,
                0.3816119134426117,
                -3.657052882743983e-09
            ]
        },
        {
            "children" : [
                10
            ],
            "name" : "Upper Leg.L",
            "rotation" : [
                0.7071021199226379,
                -0.0026437488850206137,
                -0.7071017026901245,
                0.002620881889015436
            ],
            "scale" : [
                1.0000001192092896,
                1.000000238418579,
                1.0086640119552612
            ],
            "translation" : [
                0.05357670783996582,
                -0.025853395462036133,
                -0.0005883872509002686
            ]
        },
        {
            "name" : "Foot.R",
            "rotation" : [
                -1.8987573639606126e-05,
                2.504160329408478e-05,
                0.6305878162384033,
                0.7761179208755493
            ],
            "scale" : [
                0.9999998807907104,
                0.9999999403953552,
                0.9999998807907104
            ],
            "translation" : [
                -8.673382012602815e-10,
                0.4261869192123413,
                -3.3041114289034113e-09
            ]
        },
        {
            "children" : [
                12
            ],
            "name" : "Lower Leg.R",
            "rotation" : [
                9.005955803331744e-08,
                -7.611546379848733e-07,
                -0.015227308496832848,
                0.9998840689659119
            ],
            "scale" : [
                1,
                1,
                1.0000001192092896
            ],
            "translation" : [
                3.828679595585527e-10,
                0.38161197304725647,
                4.3029968477270586e-10
            ]
        },
        {
            "children" : [
                13
            ],
            "name" : "Upper Leg.R",
            "rotation" : [
                0.7071018218994141,
                -0.002643589861690998,
                -0.7071020007133484,
                0.0026210411451756954
            ],
            "scale" : [
                1.0000001192092896,
                1.0000003576278687,
                1.0086640119552612
            ],
            "translation" : [
                -0.05357670783996582,
                -0.025853395462036133,
                -0.0005883872509002686
            ]
        },
        {
            "children" : [
                8,
                11,
                14
            ],
            "name" : "Hip",
            "rotation" : [
                0.7071068286895752,
                0,
                0,
                0.7071068286895752
            ],
            "translation" : [
                0,
                0,
                0.8738111257553101
            ]
        },
        {
            "name" : "Leg IK.L",
            "rotation" : [
                0,
                -0.7071068286895752,
                0,
                0.7071068286895752
            ],
            "translation" : [
                0.053576622158288956,
                0.007527144625782967,
                0.04028182104229927
            ]
        },
        {
            "name" : "Pole Target.L",
            "rotation" : [
                0.7071068286895752,
                0,
                0,
                0.7071068286895752
            ],
            "translation" : [
                0.05340689420700073,
                -0.6016256809234619,
                0.39942583441734314
            ]
        },
        {
            "name" : "Leg IK.R",
            "rotation" : [
                0,
                -0.7071068286895752,
                0,
                0.7071068286895752
            ],
            "translation" : [
                -0.053576622158288956,
                0.007527144625782967,
                0.04028182104229927
            ]
        },
        {
            "name" : "Pole Target.R",
            "rotation" : [
                0.7071068286895752,
                0,
                0,
                0.7071068286895752
            ],
            "translation" : [
                -0.05340689420700073,
                -0.6016256809234619,
                0.39942583441734314
            ]
        },
        {
            "children" : [
                0,
                15,
                16,
                17,
                18,
                19
            ],
            "name" : "Armature"
        }
    ],
    "meshes" : [
        {
            "name" : "Cube",
            "primitives" : [
                {
                    "attributes" : {
                        "POSITION" : 0,
                        "TEXCOORD_0" : 1,
                        "NORMAL" : 2
                    },
                    "indices" : 3
                }
            ]
        }
    ],
    "accessors" : [
        {
            "bufferView" : 0,
            "componentType" : 5126,
            "count" : 1794,
            "max" : [
                0.7754157781600952,
                1.7159321308135986,
                0.13412994146347046
            ],
            "min" : [
                -0.7754156589508057,
                0.0005020350217819214,
                -0.08214310556650162
            ],
            "type" : "VEC3"
        },
        {
            "bufferView" : 1,
            "componentType" : 5126,
            "count" : 1794,
            "type" : "VEC2"
        },
        {
            "bufferView" : 2,
            "componentType" : 5126,
            "count" : 1794,
            "type" : "VEC3"
        },
        {
            "bufferView" : 3,
            "componentType" : 5123,
            "count" : 5064,
            "type" : "SCALAR"
        }
    ],
    "bufferViews" : [
        {
            "buffer" : 0,
            "byteLength" : 21528,
            "byteOffset" : 0,
            "target" : 34962
        },
        {
            "buffer" : 0,
            "byteLength" : 14352,
            "byteOffset" : 21528,
            "target" : 34962
        },
        {
            "buffer" : 0,
            "byteLength" : 21528,
            "byteOffset" : 35880,
            "target" : 34962
        },
        {
            "buffer" : 0,
            "byteLength" : 10128,
            "byteOffset" : 57408,
            "target" : 34963
        }
    ],
    "buffers" : [
        {
            "byteLength" : 67536,
            "uri" : "data:application/octet-stream;base64,"
        }
    ]
}
